<svg width="40" height="40" viewBox="0 0 40 40" fill="none" xmlns="http://www.w3.org/2000/svg">
<g clip-path="url(#clip0_216_22)">
<path d="M29.1666 3.19434C27.2899 3.22353 25.454 3.74742 23.8446 4.71312C22.2351 5.67882 20.9089 7.05212 20 8.69434C19.091 7.05212 17.7648 5.67882 16.1553 4.71312C14.5459 3.74742 12.71 3.22353 10.8333 3.19434C7.84152 3.32432 5.02279 4.63309 2.99292 6.83472C0.96305 9.03635 -0.112967 11.9519 -4.9171e-05 14.9443C-4.9171e-05 22.5227 7.97662 30.7993 14.6666 36.411C16.1603 37.6662 18.0489 38.3544 20 38.3544C21.951 38.3544 23.8396 37.6662 25.3333 36.411C32.0233 30.7993 40 22.5227 40 14.9443C40.1129 11.9519 39.0368 9.03635 37.007 6.83472C34.9771 4.63309 32.1584 3.32432 29.1666 3.19434ZM23.1916 33.861C22.2983 34.6133 21.1679 35.0258 20 35.0258C18.832 35.0258 17.7016 34.6133 16.8083 33.861C8.24495 26.676 3.33328 19.7827 3.33328 14.9443C3.21935 12.8355 3.94389 10.7672 5.34889 9.1905C6.75388 7.61379 8.72534 6.65659 10.8333 6.52767C12.9412 6.65659 14.9127 7.61379 16.3177 9.1905C17.7227 10.7672 18.4472 12.8355 18.3333 14.9443C18.3333 15.3864 18.5089 15.8103 18.8214 16.1228C19.134 16.4354 19.5579 16.611 20 16.611C20.442 16.611 20.8659 16.4354 21.1785 16.1228C21.491 15.8103 21.6666 15.3864 21.6666 14.9443C21.5527 12.8355 22.2772 10.7672 23.6822 9.1905C25.0872 7.61379 27.0587 6.65659 29.1666 6.52767C31.2746 6.65659 33.246 7.61379 34.651 9.1905C36.056 10.7672 36.7805 12.8355 36.6666 14.9443C36.6666 19.7827 31.7549 26.676 23.1916 33.8543V33.861Z" fill="#184846"/>
</g>
<defs>
<clipPath id="clip0_216_22">
<rect width="40" height="40" fill="white"/>
</clipPath>
</defs>
</svg>
