<svg width="40" height="40" viewBox="0 0 40 40" fill="none" xmlns="http://www.w3.org/2000/svg">
<path d="M25 1.25C25 0.559644 25.5596 0 26.25 0C26.9404 0 27.5 0.559644 27.5 1.25V6.25C27.5 6.94036 26.9404 7.5 26.25 7.5C25.5596 7.5 25 6.94036 25 6.25V1.25Z" fill="#184846"/>
<path d="M12.5 1.25C12.5 0.559644 13.0596 0 13.75 0C14.4404 0 15 0.559644 15 1.25V6.25C15 6.94036 14.4404 7.5 13.75 7.5C13.0596 7.5 12.5 6.94036 12.5 6.25V1.25Z" fill="#184846"/>
<path d="M37.5 8.125C37.5 6.39911 36.1009 5 34.375 5H31.25C30.5596 5 30 4.44036 30 3.75C30 3.05964 30.5596 2.5 31.25 2.5H34.375C37.4816 2.5 40 5.0184 40 8.125V31.875C40 34.9816 37.4816 37.5 34.375 37.5H5.625C2.5184 37.5 0 34.9816 0 31.875V8.125C0 5.0184 2.5184 2.5 5.625 2.5H8.75C9.44036 2.5 10 3.05964 10 3.75C10 4.44036 9.44036 5 8.75 5H5.625C3.89911 5 2.5 6.39911 2.5 8.125V31.875C2.5 33.6009 3.89911 35 5.625 35H34.375C36.1009 35 37.5 33.6009 37.5 31.875V8.125Z" fill="#184846"/>
<path d="M22.5 5H17.5V2.5H22.5V5Z" fill="#184846"/>
<path d="M33.75 12.8125C34.2678 12.8125 34.6875 13.2322 34.6875 13.75C34.6875 14.2678 34.2678 14.6875 33.75 14.6875H6.25C5.73223 14.6875 5.3125 14.2678 5.3125 13.75C5.3125 13.2322 5.73223 12.8125 6.25 12.8125H33.75Z" fill="#184846"/>
</svg>
