<svg width="38" height="38" viewBox="0 0 38 38" fill="none" xmlns="http://www.w3.org/2000/svg">
<g clip-path="url(#clip0_221_50)">
<path d="M14.25 19C16.1289 19 17.9657 18.4428 19.5279 17.399C21.0902 16.3551 22.3078 14.8714 23.0269 13.1355C23.7459 11.3996 23.934 9.48947 23.5675 7.64665C23.2009 5.80383 22.2961 4.11109 20.9675 2.78249C19.6389 1.45389 17.9462 0.549104 16.1034 0.182544C14.2605 -0.184015 12.3504 0.00411622 10.6145 0.723149C8.87861 1.44218 7.39491 2.65982 6.35104 4.22209C5.30717 5.78435 4.75 7.62108 4.75 9.5C4.75252 12.0188 5.75421 14.4337 7.53526 16.2147C9.31631 17.9958 11.7312 18.9975 14.25 19ZM14.25 3.16667C15.5026 3.16667 16.7271 3.53811 17.7686 4.23403C18.8101 4.92995 19.6219 5.91908 20.1012 7.07634C20.5806 8.23361 20.706 9.50703 20.4616 10.7356C20.2173 11.9641 19.6141 13.0926 18.7283 13.9783C17.8426 14.8641 16.7141 15.4673 15.4856 15.7116C14.257 15.956 12.9836 15.8306 11.8263 15.3512C10.6691 14.8719 9.67994 14.0601 8.98403 13.0186C8.28811 11.9771 7.91667 10.7526 7.91667 9.5C7.91667 7.8203 8.58393 6.20939 9.77166 5.02166C10.9594 3.83393 12.5703 3.16667 14.25 3.16667Z" fill="#374957"/>
<path d="M14.25 22.1663C10.4721 22.1709 6.85021 23.6737 4.17882 26.3451C1.50742 29.0165 0.00460901 32.6383 0 36.4162C0 36.8361 0.166815 37.2389 0.463748 37.5358C0.76068 37.8327 1.16341 37.9995 1.58333 37.9995C2.00326 37.9995 2.40599 37.8327 2.70292 37.5358C2.99985 37.2389 3.16667 36.8361 3.16667 36.4162C3.16667 33.4767 4.33437 30.6577 6.4129 28.5791C8.49143 26.5006 11.3105 25.3329 14.25 25.3329C17.1895 25.3329 20.0086 26.5006 22.0871 28.5791C24.1656 30.6577 25.3333 33.4767 25.3333 36.4162C25.3333 36.8361 25.5001 37.2389 25.7971 37.5358C26.094 37.8327 26.4967 37.9995 26.9167 37.9995C27.3366 37.9995 27.7393 37.8327 28.0363 37.5358C28.3332 37.2389 28.5 36.8361 28.5 36.4162C28.4954 32.6383 26.9926 29.0165 24.3212 26.3451C21.6498 23.6737 18.0279 22.1709 14.25 22.1663Z" fill="#374957"/>
<path d="M34.8331 12.4688C33.952 12.5126 33.1241 12.9038 32.5306 13.5566C31.9371 14.2094 31.6264 15.0707 31.6665 15.9521C31.7065 15.0707 31.3958 14.2094 30.8023 13.5566C30.2089 12.9038 29.381 12.5126 28.4998 12.4688C27.6187 12.5126 26.7908 12.9038 26.1973 13.5566C25.6038 14.2094 25.2931 15.0707 25.3332 15.9521C25.3332 18.6912 28.9051 21.9007 30.6848 23.3288C30.9634 23.5519 31.3096 23.6734 31.6665 23.6734C32.0233 23.6734 32.3696 23.5519 32.6481 23.3288C34.4278 21.9038 37.9998 18.6912 37.9998 15.9521C38.0398 15.0707 37.7291 14.2094 37.1356 13.5566C36.5422 12.9038 35.7143 12.5126 34.8331 12.4688Z" fill="#374957"/>
</g>
<defs>
<clipPath id="clip0_221_50">
<rect width="38" height="38" fill="white"/>
</clipPath>
</defs>
</svg>
