<svg width="40" height="40" viewBox="0 0 40 40" fill="none" xmlns="http://www.w3.org/2000/svg">
<path fill-rule="evenodd" clip-rule="evenodd" d="M30 10C30 15.5228 25.5228 20 20 20C14.4772 20 10 15.5228 10 10C10 4.47715 14.4772 0 20 0C25.5228 0 30 4.47715 30 10ZM27.5 10C27.5 14.1421 24.1421 17.5 20 17.5C15.8579 17.5 12.5 14.1421 12.5 10C12.5 5.85786 15.8579 2.5 20 2.5C24.1421 2.5 27.5 5.85786 27.5 10Z" fill="#184846"/>
<path d="M20 22.5V25H10.4208C8.55464 25 6.97243 26.3722 6.70851 28.2197L6.32297 30.9184C9.53317 34.9343 14.467 37.5 20 37.5V40C13.276 40 7.32698 36.6817 3.70117 31.5934L4.23364 27.8661C4.67351 24.7871 7.31051 22.5 10.4208 22.5H20Z" fill="#184846"/>
<path d="M39.6339 29.6339C40.122 29.1457 40.122 28.3543 39.6339 27.8661C39.1457 27.378 38.3543 27.378 37.8661 27.8661L28.75 36.9822L24.6339 32.8661C24.1457 32.378 23.3543 32.378 22.8661 32.8661C22.378 33.3543 22.378 34.1457 22.8661 34.6339L27.8661 39.6339C28.3543 40.122 29.1457 40.122 29.6339 39.6339L39.6339 29.6339Z" fill="#184846"/>
</svg>
