<svg width="43" height="51" viewBox="0 0 43 51" fill="none" xmlns="http://www.w3.org/2000/svg">
<g clip-path="url(#clip0_88_281)">
<path d="M29.1836 15.1447C29.5929 15.1941 30.3837 15.5261 30.7437 15.7319C34.1317 18.3498 38.255 20.611 41.566 23.2618C43.5416 24.8424 43.4585 27.4273 41.403 28.9064L31.2976 34.4166L31.2884 49.4762C31.2453 49.9318 31.1161 50.2665 30.5991 50.4312H12.3978C11.9455 50.2912 11.7578 49.9455 11.7116 49.5421V34.4193L1.46779 28.8186C-0.473891 27.2901 -0.495431 24.8149 1.43394 23.2618C4.74187 20.5972 8.9114 18.3333 12.3024 15.7045C13.841 14.8511 15.5273 14.991 17.0289 15.8252L17.829 15.4191C17.4935 15.1968 17.3397 14.9608 17.1089 14.6645C16.0504 13.2979 14.4749 11.1602 13.6379 9.7141C13.4871 9.45341 13.3148 9.17351 13.4256 8.87166C14.2195 7.71639 15.2903 6.7093 16.2104 5.62812L13.5702 2.14036C13.1855 1.1415 14.4964 0.433523 15.3057 1.27322C16.0904 2.53825 17.4135 3.73743 18.1982 4.96679C18.549 5.5211 18.5398 5.73788 18.1521 6.26475C17.4228 7.26087 16.3458 8.15819 15.6226 9.16802L19.0167 14.0525C19.2014 14.3379 19.226 14.5602 19.1275 14.873C21.4508 14.1376 23.9894 14.5712 25.968 15.8252L26.925 15.4164C26.8942 15.2929 26.6757 15.2846 26.568 15.1886C26.3219 14.9691 26.128 14.5135 26.3096 14.2199L29.8206 9.16528L27.125 6.06718C26.9865 5.84216 26.9588 5.56775 27.0388 5.32078L30.2114 1.19639C31.0637 0.447243 32.3223 1.21011 31.8115 2.21171C31.3868 3.04043 30.1929 4.23686 29.5867 5.06832C29.5036 5.18083 29.2113 5.51836 29.2328 5.61989L31.7623 8.47925C31.9315 8.69329 32.0884 8.95398 32.0361 9.22565L27.9989 15.1419C28.3743 15.1749 28.8205 15.098 29.1836 15.1419V15.1447ZM20.7184 16.3247C19.8629 16.4097 18.9306 16.8049 18.2474 17.2577C18.9244 18.9563 18.4998 20.3146 17.0658 21.522C16.4196 22.0653 16.0811 21.8321 16.4935 22.7815C18.2936 26.9389 25.211 26.744 26.5803 22.5757C26.8296 21.8211 26.4788 21.9693 25.9342 21.522C24.5587 20.3942 24.0325 18.9233 24.7556 17.3317L24.7187 17.2247C23.5401 16.4591 22.1677 16.1792 20.7184 16.3247ZM13.7025 33.6564V48.6914H29.3005V33.6564C29.3005 33.4122 29.8606 33.1076 30.0729 32.9814C33.4301 30.9617 37.2365 29.3482 40.529 27.238C41.3076 26.3352 41.1322 25.1744 40.1167 24.4884C36.6334 22.3178 33.3901 19.4914 29.9067 17.3674C29.7313 17.2604 29.4883 17.0903 29.3005 17.0217C27.1927 16.2341 25.3556 18.6489 27.125 20.1225C29.159 21.8184 32.0054 23.2316 34.0424 24.9302C34.7502 25.5202 34.8394 25.9976 34.0209 26.5492C32.7808 27.3834 30.5714 28.492 29.1713 29.1781C28.0112 29.7488 27.1158 30.0342 25.7464 29.9409C23.4294 29.7818 21.0507 29.5979 18.709 29.7351C16.7827 29.8476 16.0104 30.2291 14.1118 29.34C12.6563 28.6594 10.4654 27.474 9.12372 26.6288C8.44982 26.2062 8.1575 25.8275 8.68369 25.125L15.8811 20.1225C17.7305 18.5227 15.6165 16.0448 13.404 17.1644C10.1238 19.6094 6.53584 21.7607 3.26792 24.2167C2.01859 25.1579 1.43086 26.0086 2.57864 27.3505L13.2686 33.157C13.4133 33.2284 13.6717 33.5302 13.7025 33.6564ZM28.3836 23.259C26.8727 27.1913 21.5338 28.8076 17.5797 26.5876C16.2104 25.8193 15.1303 24.6338 14.6195 23.259L11.1793 25.7123C12.567 26.2967 13.8625 27.2709 15.2288 27.8636C15.8596 28.138 16.395 28.2149 17.1028 28.1682C20.0076 27.9789 22.9155 27.9652 25.8203 28.1682C26.6419 28.2259 27.2512 28.1024 27.9712 27.7731C29.2636 27.1804 30.4945 26.2666 31.8207 25.715L28.3805 23.2618L28.3836 23.259Z" fill="#184846"/>
<path d="M22.2447 0.0246856C22.857 -0.0878228 23.3586 0.186588 23.4909 0.724433L22.5862 5.47997C22.657 5.74066 24.2356 7.05509 24.5556 7.40908C24.9803 7.88107 25.0418 8.06218 24.8018 8.64667C24.2633 9.9611 23.1894 11.3112 22.6324 12.6448C22.0262 13.5916 20.6138 13.169 20.7399 12.1152L22.7247 8.29543C22.7062 8.12804 21.0354 6.72305 20.78 6.41297C20.5615 6.14954 20.4907 6.04526 20.4999 5.70225C20.5553 4.15182 21.4262 2.13491 21.5954 0.537834C21.6631 0.299096 21.9831 0.0740796 22.2416 0.0246856H22.2447Z" fill="#184846"/>
</g>
<defs>
<clipPath id="clip0_88_281">
<rect width="43" height="50.4312" fill="white"/>
</clipPath>
</defs>
</svg>
