<svg width="77" height="39" viewBox="0 0 77 39" fill="none" xmlns="http://www.w3.org/2000/svg">
<g clip-path="url(#clip0_264_23)">
<path d="M26.1863 17.25C27.4972 17.25 28.56 16.1872 28.56 14.8763C28.56 13.5653 27.4972 12.5025 26.1863 12.5025C24.8753 12.5025 23.8125 13.5653 23.8125 14.8763C23.8125 16.1872 24.8753 17.25 26.1863 17.25Z" fill="#184846"/>
<path d="M12.8138 17.25C14.1247 17.25 15.1875 16.1872 15.1875 14.8763C15.1875 13.5653 14.1247 12.5025 12.8138 12.5025C11.5028 12.5025 10.44 13.5653 10.44 14.8763C10.44 16.1872 11.5028 17.25 12.8138 17.25Z" fill="#184846"/>
<path d="M28.1287 23.8538C28.0875 23.985 28.0387 24.1163 27.99 24.2475C27.93 24.3938 28.0387 24.1388 27.975 24.2888C27.9412 24.3638 27.9075 24.435 27.87 24.51C27.735 24.7838 27.5812 25.05 27.4125 25.305C27.0825 25.8075 26.7 26.25 26.235 26.6925C25.2037 27.6788 23.9325 28.4063 22.575 28.8338C19.455 29.8163 15.9487 29.2913 13.3312 27.3038C12.1125 26.3775 11.145 25.1588 10.5412 23.7563C10.3425 23.2913 9.65625 23.1863 9.25875 23.4188C8.77875 23.7 8.7225 24.2363 8.92125 24.7013C10.2712 27.8363 13.3462 30.12 16.6312 30.8775C20.3062 31.725 24.2887 30.8363 27.165 28.3763C28.4137 27.3075 29.4262 25.92 29.9362 24.3525C30.3112 23.2013 28.5 22.71 28.1287 23.8538Z" fill="#184846"/>
<path d="M19.5 38C29.7173 38 38 29.7173 38 19.5C38 9.28273 29.7173 1 19.5 1C9.28273 1 1 9.28273 1 19.5C1 29.7173 9.28273 38 19.5 38Z" stroke="#184846" stroke-width="2" stroke-miterlimit="10"/>
</g>
<g clip-path="url(#clip1_264_23)">
<path d="M64.1863 17.25C65.4972 17.25 66.56 16.1872 66.56 14.8763C66.56 13.5653 65.4972 12.5025 64.1863 12.5025C62.8753 12.5025 61.8125 13.5653 61.8125 14.8763C61.8125 16.1872 62.8753 17.25 64.1863 17.25Z" fill="#184846"/>
<path d="M50.8138 17.25C52.1247 17.25 53.1875 16.1872 53.1875 14.8763C53.1875 13.5653 52.1247 12.5025 50.8138 12.5025C49.5028 12.5025 48.44 13.5653 48.44 14.8763C48.44 16.1872 49.5028 17.25 50.8138 17.25Z" fill="#184846"/>
<path d="M66.1287 30.54C66.0875 30.4088 66.0387 30.2775 65.99 30.1463C65.93 30 66.0387 30.255 65.975 30.105C65.9412 30.03 65.9075 29.9588 65.87 29.8838C65.735 29.61 65.5812 29.3438 65.4125 29.0888C65.0825 28.5863 64.7 28.1438 64.235 27.7013C63.2037 26.715 61.9325 25.9875 60.575 25.56C57.455 24.5775 53.9487 25.1025 51.3312 27.09C50.1125 28.0163 49.145 29.235 48.5412 30.6375C48.3425 31.1025 47.6562 31.2075 47.2587 30.975C46.7787 30.6938 46.7225 30.1575 46.9212 29.6925C48.2712 26.5575 51.3462 24.2738 54.6312 23.5163C58.3062 22.6688 62.2887 23.5575 65.165 26.0175C66.4137 27.0863 67.4262 28.4738 67.9362 30.0413C68.3112 31.1925 66.5 31.6838 66.1287 30.54Z" fill="#184846"/>
<path d="M57.5 38C67.7173 38 76 29.7173 76 19.5C76 9.28273 67.7173 1 57.5 1C47.2827 1 39 9.28273 39 19.5C39 29.7173 47.2827 38 57.5 38Z" stroke="#184846" stroke-width="2" stroke-miterlimit="10"/>
</g>
<defs>
<clipPath id="clip0_264_23">
<rect width="39" height="39" fill="white"/>
</clipPath>
<clipPath id="clip1_264_23">
<rect width="39" height="39" fill="white" transform="translate(38)"/>
</clipPath>
</defs>
</svg>
