<svg width="40" height="45" viewBox="0 0 40 45" fill="none" xmlns="http://www.w3.org/2000/svg">
<g clip-path="url(#clip0_88_258)">
<path d="M26.0132 8.37515C27.1147 8.31593 27.669 8.11267 28.7778 8.42956C31.2286 9.13056 32.972 10.1356 33.747 12.3907C35.4812 17.4385 35.4028 20.5865 29.2355 22.5215C28.7376 22.6783 27.773 22.7183 27.4575 22.8816C27.2751 22.976 25.7689 24.9606 25.3567 25.3591C22.5904 28.0318 17.5592 30.4229 14.0415 27.2828C13.6604 26.9435 13.1589 26.0329 12.7832 25.8264C11.6727 25.215 10.108 25.3671 8.66014 24.1635C7.42375 23.1345 7.69547 22.1342 7.15934 21.3996C7.08092 21.2939 6.7235 21.2283 6.56303 21.0475C5.46524 19.8071 4.85982 18.8581 5.292 17.1936C5.49259 16.419 6.80556 15.2155 6.84751 14.8714C6.90039 14.4264 6.18555 13.1701 6.11808 12.4739C5.93025 10.5438 6.84568 9.86996 8.21336 11.592C9.80351 8.97051 14.0287 6.89313 17.3349 6.63706C18.1135 6.57625 19.3791 6.7747 20.0301 6.60185C20.3054 6.52983 21.1425 5.75362 21.5582 5.54236C24.7075 3.93871 25.4607 6.0593 26.0132 8.37675V8.37515ZM23.7575 6.35058C23.2906 5.93927 22.0397 6.68348 21.799 7.10919C22.6159 7.20682 23.3782 7.17161 24.1678 7.43088C24.279 7.32525 23.9034 6.47862 23.7556 6.35058H23.7575ZM19.246 7.75257C15.7556 7.96863 10.3798 9.2746 9.58286 12.7124C10.9086 12.0402 12.1523 11.2031 13.5965 10.715C14.6761 10.3501 16.5106 10.2477 17.2254 9.89877C17.5974 9.71792 19.669 8.12548 19.246 7.75257ZM20.7048 9.19137C21.2136 8.9129 22.9387 10.006 23.0755 9.42984C23.2432 8.71924 21.1042 8.1927 20.7048 9.19137ZM28.362 16.8735C28.9127 14.7049 29.6895 12.5523 29.0914 10.3133C28.8489 10.3261 28.6246 10.9151 28.5881 11.0703C28.3583 12.0546 28.5717 13.0917 27.6836 13.9383L28.362 16.8735ZM28.3638 21.3548C30.2603 21.0971 32.9008 19.6439 33.2437 17.877C33.4643 16.7359 32.5124 12.5283 31.7994 11.5392C31.5441 11.1871 31.1393 10.9391 30.8256 10.6334C30.9879 14.412 29.3084 17.7746 28.3656 21.3548H28.3638ZM19.4265 11.2736L17.8126 11.2944L17.6066 12.2322C18.0625 12.005 18.5548 11.8337 19.0271 11.6337C19.2733 11.528 19.5286 11.7361 19.4265 11.2736ZM18.7007 17.8354C20.5425 17.1872 23.3909 16.1725 24.3282 14.5289C24.755 13.7799 23.6389 11.8353 22.811 11.9041C22.4171 11.9377 21.3248 13.3333 21.0294 13.7174C20.6538 14.204 18.4618 17.5777 18.7025 17.8354H18.7007ZM13.0458 12.3955C12.9346 12.3058 10.9487 13.3333 10.8575 13.6726C12.5352 13.9223 12.2817 13.4133 13.0458 12.3955ZM19.9736 12.714L16.31 14.1031C16.0036 14.5017 16.4522 15.0954 16.4905 15.5307C16.5799 16.5854 16.3191 17.3328 15.9635 18.3139L17.0321 18.2931C17.3385 17.4753 17.5956 16.6495 17.995 15.8572C18.553 14.7545 19.3845 13.7975 19.9736 12.714ZM11.587 14.9546L9.58104 14.6345L10.3123 16.3934C10.6095 16.5886 11.7456 15.1146 11.587 14.9546ZM14.8676 17.5153L15.0499 15.5948C14.6341 15.7324 14.5466 16.2974 14.5047 16.635C14.4664 16.9375 14.3168 17.6689 14.8676 17.5169V17.5153ZM25.2619 15.9148C24.9464 15.8428 24.8972 16.0285 24.7148 16.1533C24.0347 16.6158 23.3855 17.1984 22.7107 17.6737L25.2619 17.3536V15.9148ZM9.39686 21.0347C8.95008 20.2777 9.53545 18.7828 9.3695 18.2707C9.21632 17.7986 7.71917 16.9631 7.66629 16.2349C6.73445 16.9135 6.01049 18.466 7.02439 19.2742C7.05175 18.6964 7.79941 18.4275 8.25895 18.8341C8.82608 19.3366 7.93982 21.0539 9.39686 21.0331V21.0347ZM24.5325 18.6356L18.3323 19.5943C17.871 22.792 22.0816 20.8362 23.5241 19.7495C23.7064 19.6119 24.7349 18.8133 24.5307 18.634L24.5325 18.6356ZM22.8931 21.8349C24.6583 22.1342 26.0242 20.1272 26.3542 18.7956L24.6273 20.5593C24.2134 20.9082 23.6918 21.1275 23.2359 21.4236C23.0317 21.5564 22.7819 21.4204 22.8913 21.8349H22.8931ZM16.8534 19.7735L15.9544 19.6679C15.7702 20.5833 15.5551 20.6554 14.4937 20.4809L13.2282 21.6732L17.2382 21.5132C16.8188 21.2059 16.9391 19.8599 16.8534 19.7719V19.7735ZM11.545 22.992C11.2952 22.7776 9.51174 22.5183 9.03397 22.3166C8.72761 23.088 11.9189 24.5829 11.9535 24.1539C11.9043 23.8851 11.7292 23.1489 11.545 22.992ZM22.3442 22.9584L15.0481 22.8768C16.9246 23.6594 19.0217 23.9811 21.0714 23.5202C21.4124 23.4433 22.1655 23.2449 22.3424 22.9584H22.3442ZM17.9676 24.8789C16.3684 24.7925 14.9059 24.1891 13.4105 23.757L13.9011 24.7189C14.966 24.7301 16.0912 24.983 17.1397 25.0422C17.3367 25.0534 18.0005 25.1526 17.9658 24.8773L17.9676 24.8789ZM23.2578 25.199C21.0458 25.9448 18.6168 26.585 16.2334 26.1609L14.8712 26.2361C17.3221 28.616 21.2391 27.3516 23.2578 25.199Z" fill="#184846"/>
<path d="M36.4039 27.4507C36.4951 29.104 37.3813 30.3524 35.3006 31.3558C36.2361 32.1625 35.2569 33.2188 35.1256 34.091C34.9031 35.5666 35.4556 36.4533 34.3506 37.8921C33.1579 39.4429 30.636 39.9086 28.6391 39.7566C27.2222 39.6477 26.0205 39.0492 24.7166 38.6395L25.0285 43.5016C24.8735 43.9737 24.4158 44.4907 23.8778 44.0954C23.1611 43.5688 23.4274 38.9884 23.2213 37.9497L21.3339 36.8806C21.1552 36.7125 21.3339 36.0083 21.4579 35.9395C22.0706 35.5986 25.4242 37.5015 26.2922 37.8152C28.3036 38.5418 30.636 38.9756 32.5452 37.748C34.0424 36.7845 33.5044 35.6114 33.6758 34.259C33.7488 33.6797 34.294 32.4425 34.108 32.084C34.0096 31.8936 33.6503 31.7351 33.5445 31.4439C33.1178 30.2627 35.0982 30.2243 35.2751 29.7282C35.3426 28.9248 34.584 27.67 34.821 26.9514C35.2769 25.567 39.2177 26.7786 38.4919 24.3891C38.0488 22.9343 35.7018 20.4744 35.4866 19.1812C35.3517 18.3698 35.8039 17.4528 35.8495 16.6381C36.2835 8.89518 32.6018 3.73694 23.845 1.87563C7.5915 -1.57813 -2.0406 8.2518 2.52015 22.03C3.71824 25.6502 6.58671 28.8223 7.02437 32.4809C7.38908 35.5234 6.97696 39.6509 6.24388 42.6742C6.11988 43.1847 6.04329 44.1818 5.29927 44.2346C4.82879 44.2682 4.52425 43.9545 4.5352 43.556C4.56437 42.5045 5.19715 40.8273 5.3631 39.6605C5.83175 36.3508 6.06699 32.9963 4.79232 29.7986C4.2416 28.4142 3.29517 27.2667 2.61862 25.9447C-2.98338 14.9945 -0.0565515 0.976176 15.865 0.0623219C28.444 -0.657879 37.8099 4.79004 37.3066 16.4797C37.2774 17.1439 36.8598 18.4322 36.9637 18.994C37.1406 19.9463 39.0116 22.2221 39.5204 23.3264C40.7951 26.1016 39.4584 26.9834 36.4039 27.4507Z" fill="#184846"/>
</g>
<defs>
<clipPath id="clip0_88_258">
<rect width="40" height="44.2379" fill="white"/>
</clipPath>
</defs>
</svg>
