<svg width="31" height="61" viewBox="0 0 31 61" fill="none" xmlns="http://www.w3.org/2000/svg">
<g clip-path="url(#clip0_96_287)">
<path d="M21.9425 35.5881C17.7902 33.933 12.767 34.5842 11.4269 38.8956C11.1386 39.8289 10.8228 40.4069 12.1292 40.2007C12.5708 35.0753 18.3392 34.7497 22.6662 36.6327C24.2057 35.5854 25.3066 33.9602 27.1589 33.2846C30.201 32.1776 31.6669 34.8962 29.9158 37.0831C28.4438 38.92 24.2824 42.1162 22.2584 43.8609C19.7468 46.026 18.7378 47.5075 14.7512 47.8086C9.11465 48.2346 1.70251 48.0067 0.0833119 42.0511C-0.306155 40.6158 -0.392021 33.9873 -0.0546872 32.5303C0.258113 31.1682 1.84665 30.1209 3.30331 29.8062C5.44998 29.3395 6.96184 29.6488 8.90611 29.6325C11.3441 29.6135 16.5022 29.2662 18.5845 29.7465C21.2525 30.3624 22.3964 33.3822 21.9456 35.5881H21.9425Z" fill="#184846"/>
<path d="M11.2153 13.4751C11.3687 12.851 12.7548 11.7522 13.5368 11.7115C14.512 11.6626 16.1189 12.6448 16.1189 13.4751V28.5337H11.2153V13.4751Z" fill="#184846"/>
<path d="M21.9456 29.7547L21.185 30.159C20.1485 28.9543 18.4772 28.8756 17.0205 28.3683L17.1769 16.5819C17.9436 14.414 21.9456 15.1221 21.9456 17.0024V29.7547Z" fill="#184846"/>
<path d="M10.2953 28.5337H5.39172V17.0024C5.39172 14.6066 10.2953 14.9376 10.2953 16.731V28.5337Z" fill="#184846"/>
<path d="M-0.125244 19.987C0.0311559 19.4904 1.50622 18.7524 2.17476 18.7524C6.09702 18.7524 3.89822 26.1651 4.49316 28.3682L0.485022 30.0287L-0.122177 29.7547V19.987H-0.125244Z" fill="#184846"/>
</g>
<defs>
<clipPath id="clip0_96_287">
<rect width="31" height="61" fill="white"/>
</clipPath>
</defs>
</svg>
