<svg width="38" height="38" viewBox="0 0 38 38" fill="none" xmlns="http://www.w3.org/2000/svg">
<g clip-path="url(#clip0_221_68)">
<path d="M19 38C17.3203 38 15.7094 37.3327 14.5217 36.145C13.3339 34.9573 12.6667 33.3464 12.6667 31.6667V25.3333H6.33333C4.65363 25.3333 3.04272 24.6661 1.85499 23.4783C0.66726 22.2906 0 20.6797 0 19C0 17.3203 0.66726 15.7094 1.85499 14.5217C3.04272 13.3339 4.65363 12.6667 6.33333 12.6667H12.6667V6.33333C12.6667 4.65363 13.3339 3.04272 14.5217 1.85499C15.7094 0.66726 17.3203 0 19 0C20.6797 0 22.2906 0.66726 23.4783 1.85499C24.6661 3.04272 25.3333 4.65363 25.3333 6.33333V12.6667H31.6667C33.3464 12.6667 34.9573 13.3339 36.145 14.5217C37.3327 15.7094 38 17.3203 38 19C38 20.6797 37.3327 22.2906 36.145 23.4783C34.9573 24.6661 33.3464 25.3333 31.6667 25.3333H25.3333V31.6667C25.3333 33.3464 24.6661 34.9573 23.4783 36.145C22.2906 37.3327 20.6797 38 19 38ZM6.33333 15.8333C5.49348 15.8333 4.68803 16.167 4.09416 16.7608C3.5003 17.3547 3.16667 18.1601 3.16667 19C3.16667 19.8399 3.5003 20.6453 4.09416 21.2392C4.68803 21.833 5.49348 22.1667 6.33333 22.1667H14.25C14.6699 22.1667 15.0727 22.3335 15.3696 22.6304C15.6665 22.9273 15.8333 23.3301 15.8333 23.75V31.6667C15.8333 32.5065 16.167 33.312 16.7608 33.9058C17.3547 34.4997 18.1601 34.8333 19 34.8333C19.8399 34.8333 20.6453 34.4997 21.2392 33.9058C21.833 33.312 22.1667 32.5065 22.1667 31.6667V23.75C22.1667 23.3301 22.3335 22.9273 22.6304 22.6304C22.9273 22.3335 23.3301 22.1667 23.75 22.1667H31.6667C32.5065 22.1667 33.312 21.833 33.9058 21.2392C34.4997 20.6453 34.8333 19.8399 34.8333 19C34.8333 18.1601 34.4997 17.3547 33.9058 16.7608C33.312 16.167 32.5065 15.8333 31.6667 15.8333H23.75C23.3301 15.8333 22.9273 15.6665 22.6304 15.3696C22.3335 15.0727 22.1667 14.6699 22.1667 14.25V6.33333C22.1667 5.49348 21.833 4.68803 21.2392 4.09416C20.6453 3.5003 19.8399 3.16667 19 3.16667C18.1601 3.16667 17.3547 3.5003 16.7608 4.09416C16.167 4.68803 15.8333 5.49348 15.8333 6.33333V14.25C15.8333 14.6699 15.6665 15.0727 15.3696 15.3696C15.0727 15.6665 14.6699 15.8333 14.25 15.8333H6.33333Z" fill="#184846"/>
</g>
<defs>
<clipPath id="clip0_221_68">
<rect width="38" height="38" fill="white"/>
</clipPath>
</defs>
</svg>
