<svg width="40" height="40" viewBox="0 0 40 40" fill="none" xmlns="http://www.w3.org/2000/svg">
<path d="M19.9873 1.75134C30.0656 1.75152 38.2354 9.92199 38.2354 20.0004C38.2352 30.0786 30.0655 38.2482 19.9873 38.2484C9.90893 38.2484 1.73845 30.0787 1.73828 20.0004C1.73828 9.92189 9.90882 1.75134 19.9873 1.75134ZM19.9873 4.25134C11.2895 4.25134 4.23828 11.3026 4.23828 20.0004C4.23845 28.698 11.2896 35.7484 19.9873 35.7484C28.6848 35.7482 35.7352 28.6979 35.7354 20.0004C35.7354 11.3027 28.6849 4.25152 19.9873 4.25134ZM21.2744 7.25525C21.4099 6.57838 22.0682 6.13942 22.7451 6.27478C23.422 6.41016 23.8609 7.06857 23.7256 7.74548L21.3574 19.5892L28.3838 26.6166C28.8719 27.1047 28.8719 27.896 28.3838 28.3842C27.8956 28.8723 27.1044 28.8723 26.6162 28.3842L19.1162 20.8842C18.8207 20.5886 18.6925 20.165 18.7744 19.7552L21.2744 7.25525Z" fill="#184846"/>
</svg>
